<?xml version="1.0" standalone="no"?><!DOCTYPE svg PUBLIC "-//W3C//DTD SVG 1.1//EN" "http://www.w3.org/Graphics/SVG/1.1/DTD/svg11.dtd"><svg t="1661418319932" class="icon" viewBox="0 0 1024 1024" version="1.1" xmlns="http://www.w3.org/2000/svg" p-id="36855" xmlns:xlink="http://www.w3.org/1999/xlink" width="200" height="200"><defs><style type="text/css">@font-face { font-family: element-icons; src: url("chrome-extension://moombeodfomdpjnpocobemoiaemednkg/fonts/element-icons.woff") format("woff"), url("chrome-extension://moombeodfomdpjnpocobemoiaemednkg/fonts/element-icons.ttf ") format("truetype"); }
</style></defs><path d="M510.04 0.156c-11.778 0-21.32 9.544-21.32 21.322v131.646h42.642V21.478c0-11.776-9.546-21.322-21.322-21.322z" fill="#965353" p-id="36856"></path><path d="M616.664 917.19c0 58.92-47.736 106.654-106.624 106.654-58.886 0-106.638-47.734-106.638-106.654 0-58.888 47.752-106.624 106.638-106.624 58.888 0 106.624 47.734 106.624 106.624z" fill="#DD9B31" p-id="36857"></path><path d="M701.98 831.902c0-47.11-38.208-85.316-85.316-85.316H403.4c-47.112 0-85.302 38.208-85.302 85.316 0 47.112 38.192 85.288 85.302 85.288h213.264c47.11 0 85.316-38.176 85.316-85.288z" fill="#E8A838" p-id="36858"></path><path d="M787.298 703.942c0-47.11-38.208-85.316-85.318-85.316H318.098c-47.11 0-85.3 38.208-85.3 85.316 0 47.112 38.192 85.288 85.3 85.288H701.98c47.11-0.002 85.318-38.178 85.318-85.288z" fill="#F5BA45" p-id="36859"></path><path d="M403.4 234.74c0-58.886 47.752-106.624 106.638-106.624 58.888 0 106.624 47.736 106.624 106.624s-47.736 106.64-106.624 106.64c-58.886 0-106.638-47.752-106.638-106.64z" fill="#DD9B31" p-id="36860"></path><path d="M318.098 320.058c0 47.112 38.192 85.302 85.302 85.302h213.264c47.11 0 85.316-38.192 85.316-85.302 0-47.126-38.208-85.318-85.316-85.318H403.4c-47.11 0-85.302 38.192-85.302 85.318z" fill="#E8A838" p-id="36861"></path><path d="M232.796 448.02c0 47.112 38.192 85.302 85.3 85.302H701.98c47.11 0 85.318-38.192 85.318-85.302 0-47.126-38.208-85.318-85.318-85.318H318.098c-47.11 0-85.302 38.19-85.302 85.318z" fill="#F5BA45" p-id="36862"></path><path d="M876.522 575.98c0-47.124-38.176-85.318-85.288-85.318H232.796c-47.112 0-85.318 38.194-85.318 85.318 0 47.112 38.208 85.288 85.318 85.288h558.438c47.112 0 85.288-38.176 85.288-85.288z" fill="#FECD57" p-id="36863"></path><path d="M552.684 575.98c0 23.554-19.09 42.644-42.644 42.644s-42.658-19.09-42.658-42.644 19.104-42.658 42.658-42.658 42.644 19.104 42.644 42.658z" fill="#424953" p-id="36864"></path></svg>