<?xml version="1.0" standalone="no"?><!DOCTYPE svg PUBLIC "-//W3C//DTD SVG 1.1//EN" "http://www.w3.org/Graphics/SVG/1.1/DTD/svg11.dtd"><svg t="1661418364081" class="icon" viewBox="0 0 1024 1024" version="1.1" xmlns="http://www.w3.org/2000/svg" p-id="37017" xmlns:xlink="http://www.w3.org/1999/xlink" width="200" height="200"><defs><style type="text/css">@font-face { font-family: element-icons; src: url("chrome-extension://moombeodfomdpjnpocobemoiaemednkg/fonts/element-icons.woff") format("woff"), url("chrome-extension://moombeodfomdpjnpocobemoiaemednkg/fonts/element-icons.ttf ") format("truetype"); }
</style></defs><path d="M725.342 661.344h85.312v106h-85.312z" fill="#ED5564" p-id="37018"></path><path d="M810.654 640h-85.312c-11.782 0-21.344 9.562-21.344 21.344v106c0 11.782 9.562 21.312 21.344 21.312h85.312c11.782 0 21.344-9.532 21.344-21.312v-106c0-11.782-9.562-21.344-21.344-21.344z m-21.312 106h-42.688v-63.344h42.688V746z" fill="#DA4453" p-id="37019"></path><path d="M448 256.002h128v597.34h-128zM256.002 1002.652c0 11.782-9.562 21.344-21.344 21.344s-21.312-9.562-21.312-21.344 9.532-21.312 21.312-21.312 21.344 9.532 21.344 21.312zM810.654 1002.652c0 11.782-9.532 21.344-21.312 21.344s-21.344-9.562-21.344-21.344 9.562-21.312 21.344-21.312 21.312 9.532 21.312 21.312z" fill="#CCD1D9" p-id="37020"></path><path d="M234.658 725.344c0 11.782-9.532 21.312-21.312 21.312s-21.344-9.532-21.344-21.312S201.564 704 213.346 704s21.312 9.562 21.312 21.344zM320.002 725.344c0 11.782-9.562 21.312-21.344 21.312s-21.312-9.532-21.312-21.312S286.876 704 298.658 704s21.344 9.562 21.344 21.344z" fill="#434A54" p-id="37021"></path><path d="M149.346 725.344v170.654l42.656 106.654h639.996l42.656-106.654v-170.654z" fill="#656D78" p-id="37022"></path><path d="M512 0.004c-94.25 0-170.654 76.404-170.654 170.654 0 94.282 76.404 170.688 170.654 170.688s170.656-76.406 170.656-170.688C682.656 76.408 606.25 0.004 512 0.004z" fill="#ED5564" p-id="37023"></path><path d="M512 0.004c-7.218 0-14.344 0.468-21.344 1.312C574.844 11.816 640 83.626 640 170.658s-65.156 158.844-149.344 169.344c7 0.876 14.124 1.344 21.344 1.344 94.25 0 170.656-76.406 170.656-170.688C682.656 76.408 606.25 0.004 512 0.004z" fill="#FFFFFF" opacity=".1" p-id="37024"></path><path d="M618.656 640H405.344l-42.688 85.344 0.156 85.31c0 11.782 9.562 21.344 21.344 21.344H640c11.782 0 21.344-9.562 21.344-21.344v-85.31L618.656 640z" fill="#E6E9ED" p-id="37025"></path><path d="M831.998 1002.652H192.002l-42.656-106.654h725.308z" fill="#434A54" p-id="37026"></path></svg>